<?xml version="1.0" encoding="utf-8"?>
<!-- Generator: Adobe Illustrator 22.1.0, SVG Export Plug-In . SVG Version: 6.00 Build 0)  -->
<svg version="1.1" id="Capa_1" xmlns="http://www.w3.org/2000/svg" xmlns:xlink="http://www.w3.org/1999/xlink" x="0px" y="0px"
	 viewBox="0 0 1000 1000" style="enable-background:new 0 0 1000 1000;" xml:space="preserve">
<style type="text/css">
	.st0{fill:#FFFFFF;}
</style>
<path class="st0" d="M987.7,500c0,269.5-218.5,488-488,488c-269.5,0-488-218.5-488-488s218.5-488,488-488
	C769.2,12,987.7,230.5,987.7,500"/>
<path d="M618.7,627.3c-9.3-21.8-14-38.7-14-50.9c0-22.6,8.3-41.6,24.8-57c16.5-15.4,37.1-23.1,61.7-23.1c21.2,0,39,5.6,53.4,17
	c14.4,11.3,21.6,25.3,21.6,42c0,13.6-4.9,25.7-14.8,36.5c-9.9,10.7-21.9,16.1-36,16.1c-6.8,0-12.2-1.3-16.1-3.8
	c4.8-0.9,8.6-3.3,11.2-7.2c2.7-4,4-8.1,4-12.3c0-4.8-1.8-8.9-5.5-12.3c-3.7-3.4-8.2-5.1-13.6-5.1c-7.4,0-13.2,2.5-17.6,7.4
	c-4.4,4.9-6.6,11.4-6.6,19.3c0,5.4,3.8,19.4,11.5,42c7.6,22.6,11.5,42.4,11.5,59.4c0,31.4-11.9,59.7-35.8,85
	c-23.9,25.3-53.2,38-88,38c-29.7,0-54.8-9.4-75.3-28.2c-20.5-18.8-30.7-42.3-30.7-70.6c0-26.6,8.8-49.4,26.5-68.5
	c17.7-19.1,38.9-28.6,63.8-28.6c16.4,0,29.8,4.4,40.3,13.1c10.5,8.8,15.7,19.4,15.7,31.8c0,11-3.8,20-11.5,26.9
	c-7.6,6.9-15.3,10.4-22.9,10.4c-2.3,0-3.7-0.3-4.2-0.8c0.6-1.1,0.9-2.5,0.9-4.2c0-2.5-1.1-4.6-3.2-6.2c-2.1-1.6-4.6-2.3-7.4-2.3
	c-3.7,0-7.3,1.6-10.8,4.7c-3.5,3.1-5.3,7.8-5.3,14c0,8.2,3.1,14.7,9.3,19.5c6.2,4.8,13.9,7.2,22.9,7.2c14.1,0,26.7-5.6,37.7-16.7
	c11-11.2,16.5-25.4,16.5-42.6C632.7,665.6,628,649.1,618.7,627.3"/>
<path d="M485.5,418.1c6.7-5.4,13.9-8.1,21.6-8.1c7.5,0,13.2,2.6,17.2,7.9c4,5.3,4.9,11.8,3,19.5c-2,7.7-6.3,14.2-13,19.5
	c-6.7,5.3-13.8,7.9-21.3,7.9c-7.7,0-13.5-2.7-17.5-8.1c-4-5.4-4.9-11.8-3-19.3S478.8,423.5,485.5,418.1 M472.2,547.4
	c-5.9,12.8-9,20.6-9.6,23.4c-0.9,4.9,0.4,7.3,4.6,7.3c6.4,0,13.3-6.6,20.8-19.8l-2,5.3c-14.5,35.9-31.7,53.8-51.5,53.8
	c-8.6,0-14.9-2.1-18.8-6.3c-4-4.2-5.7-9.8-5.1-16.8c0.5-7,2-14,4.5-21c2.4-6.9,5.6-14.3,9.6-22l31.7-65.4h44.6L472.2,547.4z"/>
<path d="M554.5,512.8c-4.5,4.6-8.6,10.3-12.4,17.2c-0.7,0.9-1.2,2-1.7,3.3c-0.4,1.3-0.4,2.6,0,4c0.4,1.3,1.5,2,3.3,2
	c4.2,0,9.4-3.6,15.5-10.9c6.2-7.3,9.2-13.5,9.2-18.8c0-2.4-1.2-3.6-3.6-3.6C562.5,505.8,559.1,508.1,554.5,512.8 M597,553.4
	c-8.6,20.3-19.9,36.2-34,47.7c-14.1,11.6-28.6,17.3-43.6,17.3c-12.3,0-21.5-3.6-27.6-10.9c-6.1-7.3-9.1-17.1-9.1-29.4
	c0-13.2,3.9-27.2,11.7-41.9c7.8-14.7,18.7-27.4,32.7-38c14-10.6,28.7-15.9,44.1-15.9c10.1,0,17.8,2.8,23,8.4
	c5.2,5.6,7.5,12.9,7.1,22c-0.7,13.2-6.2,25.1-16.7,35.7c-10.5,10.6-22.5,15.9-36.2,15.9c-10.1,0-15.5-5.2-16.2-15.5
	c-1.3,4.8-2,9-2,12.5c0,12.3,6.8,18.5,20.5,18.5c6.4,0,14.2-2.6,23.4-7.8c9.2-5.2,16.8-12.1,22.8-20.6V553.4z"/>
<path d="M532.4,290.5c-8.6-0.8-22.6-5.1-42-13.2c-19.4-8-36.2-12-50.4-12c-18.3,0-33.3,3.2-45.1,9.5c-11.7,6.3-17.6,16-17.6,29.1
	c0,9.3,3.5,14.9,10.6,16.8c-7.1,6-16.4,9-28,9c-16,0-30.6-5.6-43.6-16.8c-13.1-11.2-19.6-25.2-19.6-42c0-28,10.9-49.8,32.7-65.5
	c21.8-15.7,48.2-23.5,79.2-23.5c14.5,0,29.8,3.7,45.9,11.2c16,7.5,29.6,15.6,40.6,24.3c11,8.8,22.1,16.9,33.3,24.3
	c11.2,7.5,20,11.2,26.3,11.2c9.3,0,16.7-3.1,22.1-9.2c5.4-6.2,7.7-12.2,7-18.2h38.6c-6.7,19-18.4,39.4-35,61
	c-16.6,21.6-34.6,41.5-54,59.6c-19.4,18.1-39.8,37.8-61.3,59c-21.5,21.3-40.8,41.5-58.2,60.7c-17.3,19.2-31.6,40.4-42.8,63.5
	c-11.2,23.1-16.8,45.7-16.8,67.7c0,7.1,1.9,13.7,5.6,19.9c3.7,6.2,8.6,9.6,14.6,10.4c-14.6,11.6-30.4,18-47.6,19.3
	c-17.2,1.3-32.5-1.7-46.2-9c-13.6-7.3-25-18.1-34.1-32.5c-9.1-14.4-13.7-30.1-13.7-47.3c0-22,6-44.4,17.9-67.2
	c11.9-22.8,27.3-43.5,46.2-62.1c18.8-18.7,39.7-36.3,62.7-52.9c22.9-16.6,45.7-30.8,68.3-42.5c22.6-11.8,43.2-21.2,61.8-28.3
	c18.7-7.1,33.4-11.4,44.2-12.9L532.4,290.5z"/>
</svg>
