<?xml version="1.0" encoding="utf-8"?>
<!-- Generator: Adobe Illustrator 22.1.0, SVG Export Plug-In . SVG Version: 6.00 Build 0)  -->
<svg version="1.1" id="Capa_1" xmlns="http://www.w3.org/2000/svg" xmlns:xlink="http://www.w3.org/1999/xlink" x="0px" y="0px"
	 viewBox="0 0 1000 1000" style="enable-background:new 0 0 1000 1000;" xml:space="preserve">
<style type="text/css">
	.st0{fill:#000200;}
	.st1{fill:#FFFFFF;}
</style>
<path class="st0" d="M991.7,500c0,271.7-220.3,492-492,492c-271.7,0-492-220.3-492-492S227.9,8,499.6,8
	C771.4,8,991.7,228.3,991.7,500"/>
<path class="st1" d="M619.7,628.4c-9.4-21.9-14.1-39-14.1-51.3c0-22.8,8.3-42,25-57.5c16.7-15.5,37.4-23.3,62.2-23.3
	c21.4,0,39.3,5.7,53.9,17.1c14.5,11.4,21.8,25.5,21.8,42.3c0,13.7-5,25.9-15,36.8c-10,10.8-22.1,16.2-36.3,16.2
	c-6.8,0-12.3-1.3-16.2-3.8c4.8-0.9,8.6-3.3,11.3-7.3c2.7-4,4.1-8.1,4.1-12.4c0-4.8-1.9-9-5.6-12.4c-3.7-3.4-8.3-5.1-13.7-5.1
	c-7.4,0-13.3,2.5-17.7,7.5c-4.4,5-6.6,11.5-6.6,19.5c0,5.4,3.9,19.5,11.5,42.3c7.7,22.8,11.5,42.8,11.5,59.9
	c0,31.6-12,60.2-36.1,85.7c-24.1,25.5-53.7,38.3-88.7,38.3c-29.9,0-55.2-9.5-75.9-28.4c-20.7-19-31-42.7-31-71.2
	c0-26.8,8.9-49.8,26.7-69.1c17.8-19.2,39.3-28.9,64.3-28.9c16.5,0,30.1,4.4,40.6,13.3c10.5,8.8,15.8,19.5,15.8,32.1
	c0,11.1-3.9,20.2-11.5,27.2c-7.7,7-15.4,10.5-23.1,10.5c-2.3,0-3.7-0.3-4.3-0.9c0.6-1.1,0.9-2.6,0.9-4.3c0-2.6-1.1-4.6-3.2-6.2
	c-2.1-1.6-4.6-2.3-7.5-2.3c-3.7,0-7.3,1.6-10.9,4.7c-3.6,3.1-5.3,7.8-5.3,14.1c0,8.3,3.1,14.8,9.4,19.7c6.3,4.8,14,7.3,23.1,7.3
	c14.2,0,26.9-5.6,38.1-16.9c11.1-11.3,16.7-25.6,16.7-43C633.8,667,629.1,650.3,619.7,628.4"/>
<path class="st1" d="M485.4,417.5c6.8-5.4,14-8.2,21.8-8.2c7.5,0,13.3,2.7,17.3,8c4,5.3,5,11.9,3,19.6c-2,7.8-6.4,14.3-13.2,19.6
	c-6.8,5.3-13.9,8-21.5,8c-7.8,0-13.7-2.7-17.6-8.2c-4-5.4-5-11.9-3-19.5S478.6,422.9,485.4,417.5 M471.9,547.8
	c-6,12.9-9.1,20.8-9.7,23.6c-0.9,4.9,0.4,7.3,4.7,7.3c6.4,0,13.4-6.7,21-20l-2,5.3c-14.6,36.2-32,54.3-51.9,54.3
	c-8.7,0-15-2.1-19-6.3c-4-4.2-5.7-9.9-5.2-17c0.6-7.1,2.1-14.1,4.5-21.1c2.4-7,5.7-14.4,9.7-22.1l32-65.9h44.9L471.9,547.8z"/>
<path class="st1" d="M555,512.9c-4.6,4.7-8.7,10.4-12.5,17.3c-0.7,0.9-1.2,2-1.7,3.3c-0.4,1.3-0.4,2.7,0,4c0.4,1.3,1.6,2,3.3,2
	c4.2,0,9.4-3.7,15.6-11c6.2-7.3,9.3-13.7,9.3-19c0-2.4-1.2-3.7-3.7-3.7C563,505.9,559.5,508.2,555,512.9 M597.8,553.8
	c-8.7,20.4-20.1,36.5-34.3,48.1c-14.2,11.7-28.9,17.5-43.9,17.5c-12.4,0-21.7-3.7-27.8-11c-6.1-7.3-9.2-17.2-9.2-29.6
	c0-13.3,3.9-27.4,11.8-42.3c7.9-14.9,18.9-27.6,33-38.3c14.1-10.7,28.9-16,44.4-16c10.2,0,17.9,2.8,23.1,8.5
	c5.2,5.7,7.6,13,7.2,22.1c-0.7,13.3-6.3,25.3-16.8,36c-10.5,10.7-22.7,16-36.5,16c-10.2,0-15.6-5.2-16.3-15.6c-1.3,4.9-2,9.1-2,12.7
	c0,12.4,6.9,18.6,20.6,18.6c6.4,0,14.3-2.6,23.6-7.8c9.3-5.2,17-12.2,23-20.8V553.8z"/>
<path class="st1" d="M532.6,288.8c-8.7-0.8-22.8-5.2-42.3-13.3c-19.6-8.1-36.5-12.1-50.8-12.1c-18.4,0-33.6,3.2-45.4,9.6
	c-11.8,6.4-17.8,16.2-17.8,29.3c0,9.4,3.6,15,10.7,16.9c-7.1,6-16.5,9-28.2,9c-16.2,0-30.8-5.6-44-16.9
	c-13.2-11.3-19.7-25.4-19.7-42.3c0-28.2,11-50.2,33-66c22-15.8,48.6-23.7,79.8-23.7c14.7,0,30.1,3.8,46.3,11.3
	c16.2,7.5,29.8,15.7,40.9,24.5c11.1,8.8,22.3,17,33.6,24.5c11.3,7.5,20.1,11.3,26.5,11.3c9.4,0,16.8-3.1,22.3-9.3
	c5.5-6.2,7.8-12.3,7.1-18.3h38.9c-6.8,19.2-18.5,39.7-35.3,61.5c-16.7,21.8-34.9,41.8-54.4,60.1c-19.6,18.2-40.1,38.1-61.8,59.5
	c-21.6,21.4-41.2,41.8-58.7,61.2c-17.5,19.4-31.9,40.7-43.2,64c-11.3,23.3-16.9,46.1-16.9,68.3c0,7.2,1.9,13.8,5.6,20
	c3.8,6.2,8.7,9.7,14.7,10.4c-14.7,11.7-30.7,18.1-48,19.5c-17.3,1.3-32.8-1.7-46.5-9c-13.7-7.3-25.2-18.2-34.4-32.7
	c-9.2-14.5-13.8-30.4-13.8-47.7c0-22.2,6-44.8,18.1-67.7c12-22.9,27.5-43.8,46.5-62.6c19-18.8,40.1-36.6,63.2-53.3
	c23.1-16.7,46.1-31,68.8-42.9c22.8-11.8,43.5-21.4,62.3-28.5c18.8-7.1,33.7-11.5,44.6-13L532.6,288.8z"/>
</svg>
