<?xml version="1.0" encoding="utf-8"?>
<!-- Generator: Adobe Illustrator 22.1.0, SVG Export Plug-In . SVG Version: 6.00 Build 0)  -->
<svg version="1.1" id="Capa_1" xmlns="http://www.w3.org/2000/svg" xmlns:xlink="http://www.w3.org/1999/xlink" x="0px" y="0px"
	 viewBox="0 0 847 1000" style="enable-background:new 0 0 847 1000;" xml:space="preserve">
<g>
	<path d="M606.5,694.5c-14.3-33.3-21.4-59.2-21.4-77.8c0-34.6,12.6-63.6,37.9-87.1c25.3-23.5,56.7-35.3,94.3-35.3
		c32.4,0,59.6,8.6,81.6,25.9c22,17.3,33,38.7,33,64.1c0,20.7-7.6,39.3-22.7,55.7c-15.1,16.4-33.5,24.6-55.1,24.6
		c-10.4,0-18.6-1.9-24.6-5.8c7.3-1.3,13.1-5,17.2-11c4.1-6,6.2-12.3,6.2-18.8c0-7.3-2.8-13.6-8.4-18.8c-5.6-5.2-12.5-7.8-20.7-7.8
		c-11.2,0-20.2,3.8-26.9,11.3c-6.7,7.6-10,17.4-10,29.5c0,8.2,5.8,29.6,17.5,64.2c11.7,34.6,17.5,64.8,17.5,90.7
		c0,47.9-18.2,91.3-54.7,129.9c-36.5,38.7-81.3,58-134.4,58c-45.4,0-83.7-14.4-115-43.1c-31.3-28.7-47-64.7-47-107.9
		c0-40.6,13.5-75.5,40.5-104.6c27-29.2,59.5-43.7,97.5-43.7c25.1,0,45.6,6.7,61.6,20.1c16,13.4,24,29.6,24,48.6
		c0,16.9-5.8,30.6-17.5,41.1c-11.7,10.6-23.3,15.9-35,15.9c-3.5,0-5.6-0.4-6.5-1.3c0.9-1.7,1.3-3.9,1.3-6.5c0-3.9-1.6-7-4.9-9.4
		c-3.2-2.4-7-3.6-11.3-3.6c-5.6,0-11.1,2.4-16.5,7.1c-5.4,4.7-8.1,11.9-8.1,21.4c0,12.5,4.7,22.5,14.3,29.8c9.5,7.3,21.2,11,35,11
		c21.6,0,40.8-8.5,57.7-25.6c16.8-17.1,25.3-38.8,25.3-65.1C627.9,753,620.8,727.8,606.5,694.5"/>
	<path d="M403.1,374.9c10.3-8.2,21.3-12.4,33-12.4c11.4,0,20.2,4,26.2,12.1c6,8.1,7.6,18,4.5,29.8c-3,11.8-9.7,21.7-19.9,29.8
		c-10.3,8.1-21.1,12.1-32.5,12.1c-11.8,0-20.7-4.1-26.7-12.4c-6-8.2-7.6-18.1-4.5-29.5C386.2,393,392.8,383.2,403.1,374.9
		 M382.7,572.4c-9.1,19.5-13.8,31.5-14.6,35.8c-1.4,7.5,0.7,11.1,7.1,11.1c9.8,0,20.4-10.1,31.8-30.3l-3,8.1
		c-22.2,54.8-48.4,82.2-78.7,82.2c-13.1,0-22.7-3.2-28.8-9.6c-6.1-6.4-8.7-15-7.8-25.7c0.8-10.8,3.1-21.4,6.8-32
		c3.7-10.6,8.6-21.8,14.6-33.6l48.4-99.9h68.1L382.7,572.4z"/>
	<path d="M508.5,519.5c-6.9,7.1-13.2,15.8-18.9,26.2c-1,1.3-1.8,3-2.5,5c-0.7,2-0.7,4,0,6.1c0.7,2,2.4,3,5,3
		c6.4,0,14.3-5.6,23.7-16.6c9.4-11.1,14.1-20.7,14.1-28.8c0-3.7-1.8-5.5-5.5-5.5C520.7,508.9,515.4,512.4,508.5,519.5 M573.4,581.5
		c-13.1,30.9-30.4,55.2-52,72.9c-21.5,17.7-43.7,26.5-66.6,26.5c-18.8,0-32.9-5.6-42.1-16.6c-9.2-11.1-13.9-26.1-13.9-44.9
		c0-20.2,6-41.5,17.9-64.1c11.9-22.5,28.6-41.9,50-58c21.4-16.1,43.8-24.2,67.4-24.2c15.5,0,27.2,4.3,35.1,12.9
		c7.9,8.6,11.5,19.8,10.8,33.6c-1,20.2-9.5,38.3-25.5,54.5c-16,16.1-34.4,24.2-55.2,24.2c-15.5,0-23.7-7.9-24.7-23.7
		c-2,7.4-3,13.8-3,19.2c0,18.8,10.4,28.3,31.3,28.3c9.8,0,21.7-4,35.8-11.9c14.1-7.9,25.7-18.4,34.8-31.5V581.5z"/>
	<path d="M474.7,179.9c-13.1-1.1-34.5-7.8-64.1-20.1c-29.6-12.3-55.3-18.4-76.9-18.4c-27.9,0-50.9,4.8-68.8,14.5
		c-17.9,9.7-26.9,24.5-26.9,44.5c0,14.2,5.4,22.8,16.2,25.6c-10.8,9.1-25.1,13.7-42.7,13.7c-24.5,0-46.7-8.6-66.7-25.6
		c-19.9-17.1-29.9-38.5-29.9-64.1c0-42.7,16.7-76.1,50-100C198.1,26,238.4,14,285.7,14c22.2,0,45.6,5.7,70.1,17.1
		c24.5,11.4,45.2,23.8,62,37.2c16.8,13.4,33.8,25.8,50.9,37.2c17.1,11.4,30.5,17.1,40.2,17.1c14.3,0,25.5-4.7,33.8-14.1
		c8.3-9.4,11.8-18.7,10.7-27.8h59c-10.3,29.1-28.1,60.1-53.4,93.2c-25.4,33.1-52.9,63.4-82.5,91.1c-29.6,27.6-60.8,57.7-93.6,90.2
		c-32.8,32.5-62.4,63.4-88.9,92.8c-26.5,29.4-48.3,61.7-65.4,97c-17.1,35.3-25.6,69.8-25.6,103.4c0,10.8,2.8,21,8.5,30.4
		c5.7,9.4,13.1,14.7,22.2,15.8c-22.2,17.7-46.5,27.5-72.7,29.5c-26.2,2-49.7-2.6-70.5-13.7c-20.8-11.1-38.2-27.6-52.2-49.6
		c-14-21.9-20.9-46-20.9-72.2c0-33.6,9.1-67.8,27.4-102.6c18.2-34.8,41.7-66.4,70.5-94.9c28.8-28.5,60.7-55.4,95.8-80.8
		c35.1-25.4,69.8-47,104.3-65c34.5-18,66-32.4,94.5-43.2c28.5-10.8,51-17.4,67.5-19.7L474.7,179.9z"/>
</g>
</svg>
